<svg width="149" height="48" viewBox="0 0 149 48" fill="none" xmlns="http://www.w3.org/2000/svg">
<path d="M61.68 29.536C60.6 29.536 59.682 29.344 58.926 28.96C58.182 28.576 57.54 28.072 57 27.448L58.602 25.9C59.034 26.404 59.514 26.788 60.042 27.052C60.582 27.316 61.176 27.448 61.824 27.448C62.556 27.448 63.108 27.292 63.48 26.98C63.852 26.656 64.038 26.224 64.038 25.684C64.038 25.264 63.918 24.922 63.678 24.658C63.438 24.394 62.988 24.202 62.328 24.082L61.14 23.902C58.632 23.506 57.378 22.288 57.378 20.248C57.378 19.684 57.48 19.174 57.684 18.718C57.9 18.262 58.206 17.872 58.602 17.548C58.998 17.224 59.472 16.978 60.024 16.81C60.588 16.63 61.224 16.54 61.932 16.54C62.88 16.54 63.708 16.696 64.416 17.008C65.124 17.32 65.73 17.782 66.234 18.394L64.614 19.924C64.302 19.54 63.924 19.228 63.48 18.988C63.036 18.748 62.478 18.628 61.806 18.628C61.122 18.628 60.606 18.76 60.258 19.024C59.922 19.276 59.754 19.636 59.754 20.104C59.754 20.584 59.892 20.938 60.168 21.166C60.444 21.394 60.888 21.562 61.5 21.67L62.67 21.886C63.942 22.114 64.878 22.522 65.478 23.11C66.09 23.686 66.396 24.496 66.396 25.54C66.396 26.14 66.288 26.686 66.072 27.178C65.868 27.658 65.562 28.078 65.154 28.438C64.758 28.786 64.266 29.056 63.678 29.248C63.102 29.44 62.436 29.536 61.68 29.536Z" fill="white"/>
<path d="M71.5876 29.32C70.7956 29.32 70.1896 29.116 69.7696 28.708C69.3616 28.288 69.1576 27.694 69.1576 26.926V21.76H67.7716V19.924H68.4916C68.8396 19.924 69.0736 19.846 69.1936 19.69C69.3256 19.522 69.3916 19.276 69.3916 18.952V17.35H71.4616V19.924H73.3876V21.76H71.4616V27.484H73.2436V29.32H71.5876Z" fill="white"/>
<path d="M81.092 27.754H81.002C80.918 27.994 80.804 28.222 80.66 28.438C80.528 28.642 80.354 28.828 80.138 28.996C79.934 29.164 79.682 29.296 79.382 29.392C79.094 29.488 78.758 29.536 78.374 29.536C77.402 29.536 76.658 29.218 76.142 28.582C75.626 27.946 75.368 27.04 75.368 25.864V19.924H77.672V25.63C77.672 26.278 77.798 26.776 78.05 27.124C78.302 27.46 78.704 27.628 79.256 27.628C79.484 27.628 79.706 27.598 79.922 27.538C80.15 27.478 80.348 27.388 80.516 27.268C80.684 27.136 80.822 26.98 80.93 26.8C81.038 26.608 81.092 26.386 81.092 26.134V19.924H83.396V29.32H81.092V27.754Z" fill="white"/>
<path d="M91.98 27.754H91.89C91.722 28.294 91.404 28.726 90.936 29.05C90.468 29.374 89.922 29.536 89.298 29.536C88.11 29.536 87.198 29.11 86.562 28.258C85.938 27.406 85.626 26.188 85.626 24.604C85.626 23.032 85.938 21.826 86.562 20.986C87.198 20.134 88.11 19.708 89.298 19.708C89.922 19.708 90.468 19.87 90.936 20.194C91.404 20.506 91.722 20.932 91.89 21.472H91.98V16H94.284V29.32H91.98V27.754ZM90.036 27.628C90.5881 27.628 91.05 27.496 91.422 27.232C91.794 26.968 91.98 26.59 91.98 26.098V23.11C91.98 22.654 91.794 22.288 91.422 22.012C91.05 21.736 90.5881 21.598 90.036 21.598C89.4361 21.598 88.95 21.802 88.578 22.21C88.218 22.606 88.038 23.14 88.038 23.812V25.432C88.038 26.104 88.218 26.638 88.578 27.034C88.95 27.43 89.4361 27.628 90.036 27.628Z" fill="white"/>
<path d="M102.863 27.754H102.773C102.605 28.294 102.287 28.726 101.819 29.05C101.351 29.374 100.805 29.536 100.181 29.536C98.993 29.536 98.081 29.11 97.445 28.258C96.821 27.406 96.509 26.188 96.509 24.604C96.509 23.032 96.821 21.826 97.445 20.986C98.081 20.134 98.993 19.708 100.181 19.708C100.805 19.708 101.351 19.87 101.819 20.194C102.287 20.506 102.605 20.932 102.773 21.472H102.863V16H105.167V29.32H102.863V27.754ZM100.919 27.628C101.471 27.628 101.933 27.496 102.305 27.232C102.677 26.968 102.863 26.59 102.863 26.098V23.11C102.863 22.654 102.677 22.288 102.305 22.012C101.933 21.736 101.471 21.598 100.919 21.598C100.319 21.598 99.833 21.802 99.461 22.21C99.101 22.606 98.921 23.14 98.921 23.812V25.432C98.921 26.104 99.101 26.638 99.461 27.034C99.833 27.43 100.319 27.628 100.919 27.628Z" fill="white"/>
<path d="M113.674 19.924H115.834L112.054 30.994C111.934 31.33 111.796 31.618 111.64 31.858C111.496 32.11 111.322 32.314 111.118 32.47C110.914 32.626 110.668 32.74 110.38 32.812C110.092 32.884 109.756 32.92 109.372 32.92H107.986V31.084H109.678L110.11 29.77L106.744 19.924H109.03L110.668 24.892L111.28 27.268H111.388L112.036 24.892L113.674 19.924Z" fill="white"/>
<path d="M117.587 16.756H123.401C123.917 16.756 124.379 16.834 124.787 16.99C125.207 17.146 125.561 17.362 125.849 17.638C126.137 17.914 126.353 18.256 126.497 18.664C126.653 19.06 126.731 19.498 126.731 19.978C126.731 20.458 126.665 20.866 126.533 21.202C126.413 21.526 126.245 21.796 126.029 22.012C125.825 22.228 125.585 22.39 125.309 22.498C125.045 22.606 124.769 22.666 124.481 22.678V22.786C124.757 22.786 125.051 22.84 125.363 22.948C125.687 23.056 125.981 23.23 126.245 23.47C126.521 23.698 126.749 23.998 126.929 24.37C127.109 24.73 127.199 25.18 127.199 25.72C127.199 26.224 127.115 26.698 126.947 27.142C126.791 27.574 126.569 27.952 126.281 28.276C125.993 28.6 125.651 28.858 125.255 29.05C124.859 29.23 124.427 29.32 123.959 29.32H117.587V16.756ZM119.963 27.304H123.275C123.731 27.304 124.085 27.19 124.337 26.962C124.589 26.722 124.715 26.38 124.715 25.936V25.324C124.715 24.88 124.589 24.538 124.337 24.298C124.085 24.058 123.731 23.938 123.275 23.938H119.963V27.304ZM119.963 21.994H122.897C123.329 21.994 123.665 21.88 123.905 21.652C124.145 21.412 124.265 21.082 124.265 20.662V20.104C124.265 19.684 124.145 19.36 123.905 19.132C123.665 18.892 123.329 18.772 122.897 18.772H119.963V21.994Z" fill="white"/>
<path d="M135.085 27.754H134.995C134.911 27.994 134.797 28.222 134.653 28.438C134.521 28.642 134.347 28.828 134.131 28.996C133.927 29.164 133.675 29.296 133.375 29.392C133.087 29.488 132.751 29.536 132.367 29.536C131.395 29.536 130.651 29.218 130.135 28.582C129.619 27.946 129.361 27.04 129.361 25.864V19.924H131.665V25.63C131.665 26.278 131.791 26.776 132.043 27.124C132.295 27.46 132.697 27.628 133.249 27.628C133.477 27.628 133.699 27.598 133.915 27.538C134.143 27.478 134.341 27.388 134.509 27.268C134.677 27.136 134.815 26.98 134.923 26.8C135.031 26.608 135.085 26.386 135.085 26.134V19.924H137.389V29.32H135.085V27.754Z" fill="white"/>
<path d="M145.973 27.754H145.883C145.715 28.294 145.397 28.726 144.929 29.05C144.461 29.374 143.915 29.536 143.291 29.536C142.103 29.536 141.191 29.11 140.555 28.258C139.931 27.406 139.619 26.188 139.619 24.604C139.619 23.032 139.931 21.826 140.555 20.986C141.191 20.134 142.103 19.708 143.291 19.708C143.915 19.708 144.461 19.87 144.929 20.194C145.397 20.506 145.715 20.932 145.883 21.472H145.973V16H148.277V29.32H145.973V27.754ZM144.029 27.628C144.581 27.628 145.043 27.496 145.415 27.232C145.787 26.968 145.973 26.59 145.973 26.098V23.11C145.973 22.654 145.787 22.288 145.415 22.012C145.043 21.736 144.581 21.598 144.029 21.598C143.429 21.598 142.943 21.802 142.571 22.21C142.211 22.606 142.031 23.14 142.031 23.812V25.432C142.031 26.104 142.211 26.638 142.571 27.034C142.943 27.43 143.429 27.628 144.029 27.628Z" fill="white"/>
<path d="M45.1873 25.6483V21.1877C45.1873 20.4111 44.5577 19.7815 43.7811 19.7815C40.8759 19.7815 38.1675 20.0266 35.6086 20.5272C34.117 19.0868 32.2985 18.0416 30.3293 17.4704C32.4765 15.6632 33.8436 12.9573 33.8436 9.93773C33.8436 4.45814 29.4277 0.000244141 23.9999 0.000244141C18.572 0.000244141 14.1561 4.45814 14.1561 9.93773C14.1561 12.9573 15.5232 15.6632 17.6705 17.4703C15.7013 18.0416 13.8828 19.0868 12.3912 20.5271C9.83229 20.0266 7.12386 19.7814 4.21874 19.7814C3.44212 19.7814 2.81249 20.411 2.81249 21.1876V25.6482C1.17572 26.2287 0 27.7918 0 29.6251V32.4376C0 34.2709 1.17572 35.834 2.81249 36.4145V40.8751C2.81249 41.6517 3.44212 42.2813 4.21874 42.2813C11.5714 42.2813 17.6092 44.0235 23.22 47.7639C23.6901 48.0772 24.3094 48.078 24.78 47.7639C30.3908 44.0235 36.4285 42.2813 43.7813 42.2813C44.5579 42.2813 45.1875 41.6517 45.1875 40.8751V36.4145C46.8243 35.834 48 34.2709 48 32.4376V29.6251C47.9998 27.7919 46.8241 26.2288 45.1873 25.6483ZM16.9686 9.93773C16.9686 6.00895 20.1228 2.81274 23.9999 2.81274C27.8769 2.81274 31.0311 6.00895 31.0311 9.93773C31.0311 13.8147 27.8769 16.969 23.9999 16.969C20.1228 16.969 16.9686 13.8147 16.9686 9.93773ZM4.21865 33.8439C3.44324 33.8439 2.8124 33.2131 2.8124 32.4377V29.6252C2.8124 28.8498 3.44324 28.2189 4.21865 28.2189C4.99405 28.2189 5.6249 28.8498 5.6249 29.6252V32.4377C5.6249 33.2131 4.99405 33.8439 4.21865 33.8439ZM22.5936 44.0706C17.4887 41.1512 12.0106 39.6756 5.6249 39.4892V36.4145C7.26167 35.834 8.43739 34.271 8.43739 32.4377V29.6252C8.43739 27.7919 7.26167 26.2288 5.6249 25.6483V22.6138C12.2325 22.8035 17.5437 24.3594 22.5936 27.5747V44.0706ZM23.9999 25.1382C21.4043 23.5005 18.7026 22.2535 15.8185 21.3773C17.4032 20.3473 19.2688 19.7815 21.1874 19.7815H26.8124C28.7309 19.7815 30.5965 20.3473 32.1812 21.3773C29.2971 22.2535 26.5953 23.5005 23.9999 25.1382ZM42.3748 39.4892C35.9892 39.6756 30.511 41.1515 25.4061 44.0708V27.5758C30.4561 24.3603 35.767 22.8034 42.3748 22.6138V25.6483C40.738 26.2288 39.5623 27.7919 39.5623 29.6252V32.4377C39.5623 34.271 40.738 35.834 42.3748 36.4145V39.4892ZM45.1873 32.4377C45.1873 33.2131 44.5565 33.8439 43.7811 33.8439C43.0057 33.8439 42.3748 33.2131 42.3748 32.4377V29.6252C42.3748 28.8498 43.0057 28.2189 43.7811 28.2189C44.5565 28.2189 45.1873 28.8498 45.1873 29.6252V32.4377Z" fill="white"/>
</svg>
