<svg width="24" height="24" viewBox="0 0 24 24" fill="none" xmlns="http://www.w3.org/2000/svg">
<path d="M11.956 10.3562V13.8072H16.748C16.302 16.0002 14.435 17.2602 11.956 17.2602C9.06851 17.2205 6.74862 14.8685 6.74862 11.9807C6.74862 9.093 9.06851 6.74096 11.956 6.70122C13.1562 6.69979 14.3194 7.1163 15.246 7.87922L17.846 5.27922C14.8636 2.65729 10.508 2.32006 7.15752 4.45167C3.80707 6.58328 2.26698 10.6714 3.37821 14.4838C4.48943 18.2962 7.98491 20.9167 11.956 20.9142C16.423 20.9142 20.485 17.6652 20.485 11.9802C20.4781 11.4329 20.411 10.8879 20.285 10.3552L11.956 10.3562Z" fill="white"/>
</svg>
