<svg width="676" height="791" viewBox="0 0 676 791" fill="none" xmlns="http://www.w3.org/2000/svg">
<path d="M633.684 303.72C637.156 303.72 639.971 300.855 639.971 297.32C639.971 293.785 637.156 290.92 633.684 290.92C630.212 290.92 627.398 293.785 627.398 297.32C627.398 300.855 630.212 303.72 633.684 303.72Z" fill="#07C8F9"/>
<path d="M344.505 648.04C347.977 648.04 350.792 645.174 350.792 641.64C350.792 638.105 347.977 635.24 344.505 635.24C341.033 635.24 338.219 638.105 338.219 641.64C338.219 645.174 341.033 648.04 344.505 648.04Z" fill="#07C8F9"/>
<path d="M6.29196 726.12C9.76389 726.12 12.5784 723.255 12.5784 719.72C12.5784 716.185 9.76389 713.32 6.29196 713.32C2.82002 713.32 0.00546265 716.185 0.00546265 719.72C0.00546265 723.255 2.82002 726.12 6.29196 726.12Z" fill="#07C8F9"/>
<path d="M84.2445 448.36C87.7164 448.36 90.531 445.495 90.531 441.96C90.531 438.425 87.7164 435.56 84.2445 435.56C80.7726 435.56 77.958 438.425 77.958 441.96C77.958 445.495 80.7726 448.36 84.2445 448.36Z" fill="#07C8F9"/>
<path d="M115.677 61.8C119.149 61.8 121.963 58.9346 121.963 55.4C121.963 51.8654 119.149 49 115.677 49C112.205 49 109.39 51.8654 109.39 55.4C109.39 58.9346 112.205 61.8 115.677 61.8Z" fill="#07C8F9"/>
<path d="M421.201 93.8C424.673 93.8 427.487 90.9346 427.487 87.4C427.487 83.8654 424.673 81 421.201 81C417.729 81 414.914 83.8654 414.914 87.4C414.914 90.9346 417.729 93.8 421.201 93.8Z" fill="#07C8F9"/>
<path d="M253.98 293.48C257.452 293.48 260.266 290.614 260.266 287.08C260.266 283.545 257.452 280.68 253.98 280.68C250.508 280.68 247.693 283.545 247.693 287.08C247.693 290.614 250.508 293.48 253.98 293.48Z" fill="#07C8F9"/>
<path d="M446.347 448.36C449.819 448.36 452.633 445.495 452.633 441.96C452.633 438.425 449.819 435.56 446.347 435.56C442.875 435.56 440.06 438.425 440.06 441.96C440.06 445.495 442.875 448.36 446.347 448.36Z" fill="#07C8F9"/>
</svg>
