<svg width="720" height="838" viewBox="0 0 720 838" fill="none" xmlns="http://www.w3.org/2000/svg">
<path d="M1165.52 1126.4L919.085 943.36L653.795 844.8L388.505 688.64L50.2919 766.72L370.903 977.92L159.048 1125.76L50.2919 766.72L-247.688 631.04L128.244 488.96L-38.9763 293.12L159.048 101.76L-86.7536 -80.6396M966.862 293.12L1303.82 333.952L966.862 293.12Z" stroke="#18192E" stroke-width="0.5"/>
<path d="M465.2 1158.4L370.903 977.92M-38.9763 293.12L297.98 334.08L490.346 488.96L758.151 631.04L387.877 688L127.616 488.32L-38.9763 293.12Z" stroke="#18192E" stroke-width="0.5"/>
<path d="M653.795 844.8L726.719 1077.76L919.085 943.36L1056.13 766.72L758.151 631.04L653.795 844.8ZM653.795 844.8L370.903 977.92L388.505 688.64L490.347 488.96L677.684 344.32L966.863 293.12L726.09 53.1204L465.201 134.4L370.903 -46.0796L159.048 101.76L297.98 334.08L128.245 488.96L50.292 766.72L-86.7536 943.36L159.677 1126.4" stroke="#18192E" stroke-width="0.5"/>
<path d="M490.347 488.96H128.245M653.795 -179.2L727.347 54.4003L919.085 -80.6397L653.795 -179.2ZM758.151 631.04L677.684 344.32L297.98 334.08L465.201 134.4L758.151 631.04ZM1134.08 488.96L677.684 344.32L1134.08 488.96Z" stroke="#18192E" stroke-width="0.5"/>
<path d="M128.244 488.96L-328.155 344.32M-279.12 53.7603L159.048 101.76L465.2 134.4L677.684 344.32L726.09 53.1203L1165.52 102.4L966.863 293.12L1134.08 488.96L758.151 631.04L919.085 943.361L-279.12 53.7603ZM370.903 -46.0797L726.09 53.1203L370.903 -46.0797ZM726.719 1077.76L370.903 977.921L726.719 1077.76ZM50.2919 -257.28L159.677 102.4L50.2919 -257.28Z" stroke="#18192E" stroke-width="0.5"/>
</svg>
