<svg width="32" height="32" viewBox="0 0 32 32" fill="none" xmlns="http://www.w3.org/2000/svg">
<rect width="32" height="32" rx="16" fill="#EBEBF0"/>
<path fill-rule="evenodd" clip-rule="evenodd" d="M24.8064 11.6234L24.184 10.5433C23.6574 9.62936 22.4905 9.31408 21.5753 9.83847V9.83847C21.1397 10.0951 20.6198 10.1679 20.1305 10.0408C19.6411 9.91378 19.2224 9.59727 18.9666 9.16113C18.8021 8.8839 18.7137 8.56815 18.7103 8.2458V8.2458C18.7251 7.72898 18.5302 7.22816 18.1698 6.85743C17.8094 6.48669 17.3143 6.27762 16.7973 6.27783H15.5433C15.0367 6.27783 14.5511 6.47967 14.1938 6.8387C13.8364 7.19773 13.6369 7.68435 13.6394 8.19088V8.19088C13.6244 9.23668 12.7722 10.0766 11.7263 10.0765C11.404 10.0731 11.0882 9.9847 10.811 9.82017V9.82017C9.89582 9.29577 8.72887 9.61105 8.20229 10.525L7.5341 11.6234C7.00817 12.5361 7.31916 13.7024 8.22975 14.2321V14.2321C8.82166 14.5738 9.18629 15.2053 9.18629 15.8888C9.18629 16.5723 8.82166 17.2038 8.22975 17.5456V17.5456C7.32031 18.0717 7.00898 19.2351 7.5341 20.1451V20.1451L8.16568 21.2344C8.4124 21.6795 8.82636 22.0081 9.31595 22.1472C9.80554 22.2863 10.3304 22.2247 10.7744 21.9758V21.9758C11.2108 21.7211 11.7309 21.6513 12.2191 21.782C12.7072 21.9126 13.123 22.2328 13.3739 22.6714C13.5385 22.9486 13.6269 23.2644 13.6302 23.5868V23.5868C13.6302 24.6433 14.4867 25.4998 15.5433 25.4998H16.7973C17.8502 25.4998 18.7053 24.6489 18.7103 23.5959V23.5959C18.7079 23.0878 18.9086 22.5998 19.2679 22.2405C19.6272 21.8812 20.1152 21.6804 20.6233 21.6829C20.9449 21.6915 21.2594 21.7795 21.5387 21.9392V21.9392C22.4515 22.4651 23.6177 22.1541 24.1474 21.2435V21.2435L24.8064 20.1451C25.0615 19.7073 25.1315 19.1858 25.001 18.6961C24.8704 18.2065 24.55 17.7891 24.1108 17.5364V17.5364C23.6715 17.2837 23.3511 16.8663 23.2206 16.3767C23.09 15.8871 23.16 15.3656 23.4151 14.9277C23.581 14.6381 23.8211 14.398 24.1108 14.2321V14.2321C25.0159 13.7026 25.3262 12.5432 24.8064 11.6325V11.6325V11.6234Z" stroke="#200E32" stroke-width="1.5" stroke-linecap="round" stroke-linejoin="round"/>
<circle opacity="0.4" cx="16.1752" cy="15.8886" r="2.63616" stroke="#200E32" stroke-width="1.5" stroke-linecap="round" stroke-linejoin="round"/>
</svg>
